<?xml version="1.0" encoding="utf-8"?>
<!-- Generator: Adobe Illustrator 18.1.1, SVG Export Plug-In . SVG Version: 6.00 Build 0)  -->
<svg version="1.1" id="Layer_1" xmlns="http://www.w3.org/2000/svg" xmlns:xlink="http://www.w3.org/1999/xlink" x="0px" y="0px"
	 viewBox="0 0 99.8 25.5" enable-background="new 0 0 99.8 25.5" xml:space="preserve">
<g>
	<path fill="#459093" d="M44.1,3.1c0,0.4-0.1,0.8-0.2,1.3l-0.1,0.1c-0.1,0.1-0.2,0.1-0.2,0.1c-0.5,0-0.8-0.7-3.6-0.7
		c-4,0-6.4,1.2-10.2,1.6c0.4,5.1-1.7,20-10.2,20c-2.5,0-3.9-3-4.6-4.2c-0.7,0.7-2.2,2.3-4.1,2.3c-2.8,0-4-3.1-4-5.3
		c0-5.1,4.1-11.1,6.4-13.6c-2.9,0.7-9.9,4.2-9.9,9.7c0,0.3,0,0.5,0.1,0.6c0.2,0.6,2-0.6,2.4-1.5c0.3-0.5,1.4-0.8,1,0.3
		c-0.4,0.9-1.2,4-3.9,4c-2,0-2.9-2.1-2.9-3.7C0,7.3,8.6,3.2,14.9,3.2c0.4,0,0.9,0.4,0.7,0.7c-0.7,1.2-6,6.6-6.4,13.2
		c-0.3,3.3,1.5,4.1,1.7,4.1h0.1c1.6,0,2.8-1.6,3.2-2.2c-2-7.4,2.8-15.7,6.5-15.7c1.9,0,2.7,2,2.7,3.3c0,4.7-3.2,10.1-5.9,12.5
		c0.1,0.8,1,3.2,1.9,3.3c4.6,1.3,9.5-11.4,8.8-16.8c-1.7-0.2-2.5-1.4-2.5-2.3c0-1.7,1.3-2.7,2.1-2.5c1.1,0.2,1.4,1.9,1.6,2.8
		C33,1.7,36.4,0.2,40.6,0C42.3,0,44.1,0.8,44.1,3.1z M17.3,16.1c1.3-2.3,4.5-8.7,3.2-9.1c-1.5,0.3-3.2,5.6-3.2,8.3
		C17.2,15.9,17.2,15.5,17.3,16.1z M28.2,3.6c0.1,0,0.1-1.9-0.4-1.7c-0.4,0.2-0.4,0.4-0.4,0.9C27.3,3.3,27.8,3.5,28.2,3.6z"/>
	<path fill="#459093" d="M41,14.1c0,2.6-1.4,5.1-2.6,6.6c0.2,0.1,0.4,0.1,0.7,0.1c1.3,0,2.4-1.3,2.8-1.3c0.1,0,0.2,0.1,0.2,0.3
		c0,0.6-0.9,2.5-3.7,2.5c-0.4,0-0.9-0.1-1.4-0.3c-0.4,0.5-1.9,1.9-3.6,1.9c-3,0-4.2-2.9-4.2-5.1c0-5.6,4.4-9,5.3-9.3
		c0.2,0,0.3,0.1,0.9,1c0.6-0.4,1.3-0.9,2.4-0.9c2.3,0,3.2,2.5,3.2,3.5C41,13.4,41,13.7,41,14.1z M35.6,21.3
		c-1.9-1.1-2.3-3.4-2.3-5.4c0-0.4,0.1-0.9,0.1-1.4c-1.3,1.3-2.2,3-2.2,5c0,2,0.8,2.8,2.3,2.9C33.9,22.4,34.6,22.2,35.6,21.3z
		 M38.3,15.4c0-1.1,0-2.2-0.4-2.3c-1.1,0-2.2,2.6-2.2,4.2c0,0.8,0.2,2.4,1.1,2.7c0.6-0.8,1-1.8,1.3-3.1
		C38.3,16.4,38.3,15.9,38.3,15.4z"/>
	<path fill="#459093" d="M48.9,23.9c-1.7,0-2.2-1.4-2.2-3.6c0-1.5,0.3-3.2,0.8-4.8c-2.2,4.6-3.4,8.3-4.8,8.3c-1.7,0-2.2-1.2-2.2-3.4
		c0-5.4,3.7-11.9,3.9-11.9c0.6,0,1.4,0.3,2.1,0.7c0.4,0.2,0.8,0.4,1.3,0.7c-1.1,2.3-4.7,7.5-4.7,11.1c3.4-6.3,5.8-9.9,6.7-10.8
		c0.2-0.4,0.4-0.7,0.6-1.1c0.3-0.6,0.5-1.1,0.7-1.6c0.2,0,2.5,1.5,2.5,2.7c0,2.1-4.1,6.5-4.2,10.8c6.1-11,7.8-10.5,8.5-13.6
		c0.1,0,2.5,1.5,2.5,2.6c0,2.1-4.1,7.1-4.1,10.7c0,0.8,0.1,1.4,0.7,1.4c1,0,2.7-1.4,4.1-4.7c0,0,0.1,0,0.1-0.1
		c0.2,0,0.3,0.1,0.4,0.2l0.1,0.1c0,0.3-2,6.2-5.2,6.2c-1.4,0-2.8-1.4-2.8-4c0-1.9,0.7-4.2,1.4-6.2c-1.6,2.8-4.4,8.4-4.5,8.9
		C50.1,23.7,49.1,23.9,48.9,23.9z"/>
	<path fill="#459093" d="M72.3,19c-0.5,1-1.2,1.9-1.9,2.7c-1.3,1.3-3.2,2.6-5.7,2.6c-3.8,0-5.1-3.7-5.1-5.9c0-4.9,3.5-9.6,7.3-9.6
		c2.3,0,3.7,1.6,3.7,3.1c0,3.1-2.8,5.7-6.2,5.7c-1.1,0-2-0.3-2.3-0.7c-0.2,0.7-0.3,1.3-0.3,2c0,2,1.4,4,3.5,4c1.6,0,3.4-1.1,4.4-1.8
		c2.2-1.6,2.2-2.3,2.5-2.3c0.1,0,0.2,0,0.2,0.1C72.2,18.8,72.3,19,72.3,19z M62.2,16.1c0.1,0.1,0.3,0.1,0.7,0.1
		c2.2,0,4.2-2.3,4.2-3.5c0-0.5-0.3-0.7-0.8-0.7c-0.7,0-1.7,0.5-2.8,1.8C63.1,14.4,62.6,15.3,62.2,16.1z"/>
	<path fill="#459093" d="M78.2,19c0-2,0.5-3.3,1.2-5.3c-1.3,2.5-4.2,7.7-4.7,9.4c0,0.1-0.8,2.1-2,2.1c-1.7,0-2.2-1.5-2.2-3.7
		c0-4.8,2.8-9.6,3.1-10.2c0.4-0.9,0.9-2.3,1.1-2.8c0.5,0,2.5,1.6,2.5,2.8c0,2.5-4.2,6.2-4.2,10.5c0,0.3,0,0.5,0.1,0.7
		c7.2-13.8,8.5-12,9.2-14.9c0.2,0,2.5,1.5,2.5,2.7c0,0.2-0.1,1-0.4,1.3c-1.1,2.5-3.7,5.5-3.7,8.4c0,0.8,0.1,1.4,0.8,1.4
		c0.9,0,2.7-1.4,4.1-4.7c0,0,0.1,0,0.1-0.1c0.1,0,0.2,0.1,0.3,0.2l0.1,0.1c0,0.2-1.9,6.2-5.1,6.2c-0.7,0-1.4-0.2-2.1-1.1
		C78.4,21.1,78.2,20.2,78.2,19z"/>
	<path fill="#459093" d="M91.1,0.5c0,0.1,0.1,0.1,0.1,0.3c0,0.4-1.1,4.6-3,4.6c-0.3,0-0.4-0.2-0.5-0.4c1.3-1.3,1.7-2.9,1.7-4.2
		c0-0.2-0.1-0.4-0.1-0.7c0.3,0,0.5,0,0.8,0.1c0.4,0.1,0.9,0.2,1,0.3C91,0.4,91,0.4,91.1,0.5z"/>
	<path fill="#459093" d="M98.5,10.2c0,0.2-0.1,0.3-0.1,0.5c0.1,1.7,1,4.4,1.4,7.7c0,3.7-3.2,5.6-6.1,5.6c-3.3,0-4.8-2.5-4.8-4.2
		c0-1.1,0.5-2,1.6-2.2c1.4-2.2,3.3-6,4.5-8c0-0.7,0.5-2.2,1-2.2h-0.1c0,0.2,2.1,0.9,2.6,2.3C98.5,9.9,98.5,10.1,98.5,10.2z M97,18.9
		c0-1.7-1.5-5-1.9-6.8c-1.3,1.8-2.7,3.9-3.8,5.4c1.5-0.4,2.5-0.3,2.4-0.3c0.1,0,0.1,0,0.1,0.1c0.1,0.1,0.1,0.2,0.1,0.3
		c0,0.4-3.7,0.4-3.7,2.1c0,0.8,1.4,2.4,3.2,2.4C95,22.1,97,20.9,97,18.9z"/>
</g>
</svg>
